<svg version="1.0" xmlns="http://www.w3.org/2000/svg" width="593.333" height="414.667" viewBox="0 0 445 311"><path d="M434.8 4.7c1.2.2 3 .2 4 0 .9-.3-.1-.5-2.3-.4-2.2 0-3 .2-1.7.4zM416 6c0 .5 2 1 4.5 1s4.5-.5 4.5-1c0-.6-2-1-4.5-1s-4.5.4-4.5 1zm-37.7 1.7c1.5.2 3.9.2 5.5 0 1.5-.2.2-.4-2.8-.4s-4.3.2-2.7.4zm-21.2 1l-5.3.4.6 20.2c.8 26 1.6 35.7 2.8 35.7.6 0 .8-1.2.5-3-.4-1.7-.2-3 .3-3 .6 0 1-.7 1-1.5s.6-3.3 1.2-5.5c1-3.1 1.8-4 3.5-4 1.9 0 2.3-.6 2.3-3 0-2.9-.1-3-4.9-3-4.9 0-7.4-1.3-4.6-2.3 1.1-.5 1.2-1.3.4-3.9-1.2-4.5-1.2-21.1.1-20.3.6.3 1 1.8 1.1 3.3 0 2.6.1 2.6.9.4.5-1.2 1.4-2.2 2-2.2.5 0 1-.7 1-1.5s.6-1.5 1.4-1.5c1.4 0 2.6-2.1 2.6-4.6 0-.8-.3-1.3-.7-1.2-.5.1-3.2.3-6.2.5zm11.7 10c.1 3.8.7 8.9 1.2 11.4s.6 5.5.3 6.7c-.4 1.8-.1 2.2 1.6 2.2 2 0 2.1-.3 1.9-13.8-.2-12.3-.3-12.7-.5-3.7-.5 13.9-2.3 14.9-2.3 1.2 0-8.1-.3-10.7-1.3-10.7s-1.2 1.7-.9 6.7zm9.3 6.3c0 7.1.1 13 .2 13.1 2 .6 9.6.9 11.4.4 2.2-.5 2.3-.8 2.3-12.5V14h-3.4c-1.9 0-3.8-.5-4.1-1-.3-.6-1.9-1-3.5-1h-3l.1 13z"/><path d="M356.2 24c0 1.4.2 1.9.5 1.2.2-.6.2-1.8 0-2.5-.3-.6-.5-.1-.5 1.3zm47.8 1c0 1.9.3 2.1 1.2 1.2.9-.9.9-1.5 0-2.4-.9-.9-1.2-.7-1.2 1.2zm27-.1c0 .5-.8 1.1-1.7 1.5-1 .3-2.6 1.1-3.5 1.8-1.3.9-2.5 1-4.6.2-3.7-1.4-5.2.2-5.2 5.6v4h5.4c3.4 0 5.6-.5 5.9-1.3.4-1 .7-1 1.8 0 .7.8 3.8 1.3 7.1 1.3 3.2 0 5.8.4 5.8 1 0 .5.7 1 1.5 1 1.1 0 1.5-1.3 1.5-5.4 0-5.1-.3-5.7-3.3-8-3.3-2.5-10.7-3.7-10.7-1.7zm-74 8.6c0 3.7.4 6.5 1 6.5s1-2.8 1-6.5-.4-6.5-1-6.5-1 2.8-1 6.5zm4 2c0 5 .6 5.7 2 2.2l.9-2.2v2.3c.1 4 2.1 1.3 2.1-2.9 0-3.5-.3-3.9-2.5-3.9-2.3 0-2.5.4-2.5 4.5zm69.7 24.1c-1.3 1.4-.7 2.4 1.6 2.4 3.3 0 4.9 1.4 4.7 4.1-.4 4.9 0 6.9 1.5 6.9.9 0 1.8-.7 2.1-1.5.5-1.1 1.1-1.2 2.5-.4 1.6.8 1.9.6 1.9-1.7 0-2.2-.3-2.4-1.4-1.5-1.2 1-1.4.4-1.3-3.6l.2-4.8-5.5-.3c-3.1-.2-5.9 0-6.3.4zM396.6 66l-1.4 3h5.4c5 0 5.4-.2 5.4-2.4 0-4.6-7.1-5.1-9.4-.6zm-42.7 5.2c0 .7-.3 2.2-.7 3.3-.3 1.1-.8 21.3-1.2 45-.4 23.6-.8 47-.9 52-.4 12.3-.4 12.4 1.6 9.5 1-1.4 3.7-4.4 6.1-6.8 2.3-2.4 4.5-5.6 4.9-7.3.3-1.6.9-2.9 1.4-2.9.5 0 .9-2 .9-4.5s-.4-4.5-1-4.5-1-8.2-1-22.6c0-25.3 0-25.2-7-25.4l-3.5-.2 2.8-1c2.3-.8 2.7-1.4 2.2-3.2-.4-1.1-1.1-4.8-1.5-8.1-.5-3.3-1.2-7.7-1.6-9.8-.7-3.7-.6-3.9 1.7-3.5 1.9.2 2.3.8 2.1 2.8-.4 2.2-.2 2.3 1.3 1 1.6-1.4 1.7-1.2 1 2.8-.5 3.2-.3 4.5.9 5.8 1.8 1.7 2.2 6.4.5 6.4-.6 0-.9 1.2-.7 2.7.3 2.6.6 2.7 6.6 3.1 8.1.5 11.2-.3 11.2-2.8 0-1-.4-2.2-1-2.5-.5-.3-1-1.7-1-3.1 0-1.3-.4-2.4-1-2.4-.5 0-1-2-1-4.4 0-7.3-1.2-9.3-6.2-9.9-12.3-1.6-13.5-2.4-14-8.1-.2-2.6-1.7-3.7-1.9-1.4zm64.9.5c.7.3 1.6.2 1.9-.1.4-.3-.2-.6-1.3-.5-1.1 0-1.4.3-.6.6zm-.3 6.3c1.6 1.8 2 1.9 2.8.5.4-.8 1.2-1.3 1.8-1 .5.4.9.1.9-.4 0-.6-1.6-1.1-3.7-1.1-3.6 0-3.6 0-1.8 2z"/><path d="M112.4 82.3c-4.3 2.1-9.4 16.4-9.4 26.1 0 6-1.8 10.6-4.1 10.6-1 0-1.9.4-1.9.9 0 1.5-3.9 1.9-5.1.5-1.2-1.5-3.9-1.9-3.9-.7 0 .5.7 1.7 1.5 2.7 2 2.7 1.9 3.6-.5 3.6-1.1 0-2 .4-2 1 0 .5 1 1 2.1 1 2.1 0 2.1.3 1.5 5.7-.4 3.2-1.1 5.9-1.6 6.1-.6.2-1 1.5-1 2.8 0 2.1.5 2.4 3.5 2.4 1.9 0 3.5.4 3.5 1 0 .5.7 1 1.5 1 2 0 3.6 4.2 3.2 8.3-.2 2.7.2 3.2 2.3 3.5 1.4.2 3.6.7 5 1.2 1.4.6 5.9 1.4 10 1.9s9 1.2 10.8 1.5c2.2.3 4.2 0 5.8-1.1 2.6-1.7 3.3-.3.9 1.7-.8.7-1.2 1.6-.9 2.1.8 1.4-6.9.1-7.8-1.3-.6-.9-1-1-1.5-.2-1.7 2.4-27.1 3.6-29.8 1.4-1.3-1.1-1.5-.8-1.5 2.2 0 1.9-.4 3.8-1 4.4-1.6 1.6-2.4 12.8-1.1 15.3.9 1.6 1.6 2 2.5 1.2 1.4-1.2 11.6.7 11.6 2.1 0 .5.8.8 1.7.8 3.1 0 10.3 3.2 10.3 4.6 0 1.1-1.3 1.2-6 .7-3.7-.3-6-.2-6 .4 0 .5-1.6 1.8-3.5 2.9-1.9 1-3.5 2.2-3.5 2.6 0 .5-.4.8-.9.8-.6 0-.7-1.6-.4-3.5.6-3.8.6-3.9-7.1-3.5-2.5.1-4.8 1-6.5 2.6-1.4 1.3-2.9 2.4-3.3 2.4-.5 0-.8.4-.8 1 0 .5.9 1 2 1s2 .4 2 1c0 .5 1.5 1 3.4 1s3.8-.5 4.1-1c.3-.6 1.6-1 2.8-1 2.2.1 2.2.1.2 1.2-1.1.6-3.2 2.4-4.7 3.9l-2.7 2.8 3.2 2.3c1.8 1.2 3.4 2.5 3.7 2.8 1.7 1.8 16.1 8.2 17.4 7.7 1.1-.4 1.6-1.9 1.6-4.7 0-2.2.3-4 .8-4 .4 0 1.5-1.5 2.5-3.3 1.8-3.2 6.6-6.7 9.3-6.7 1.6 0-2 4.2-4.7 5.4-.8.3-.2.4 1.4.1 2-.4 2.7-.1 2.7 1 0 .8-.4 1.5-1 1.5-.5 0-1 .6-1 1.4 0 3.7-4 10.4-6.9 11.7-1.7.8-3.1 1.7-3.1 2.1 0 1.2 2.8 1 3.5-.2.6-1 12.9-.9 42.3.6 13.4.6 14.2.8 14.2 2.7 0 1.1-.8 2.9-1.7 4-1.2 1.3-1.8 3.6-1.8 6.9 0 4.7-.2 5.2-3.5 6.9-1.9 1.1-2.9 1.9-2.1 1.9 1 0 1.2.8.8 2.9-.3 1.5-.1 3.3.5 3.9.8.8.5 1.7-1.3 3.1-1.3 1.1-3.1 2.1-3.9 2.1-3 0-9 2.1-9 3 0 .6 1.1 1 2.4 1 1.2 0 3.6.4 5.2.9s4.8 1.4 7.2 2c3.8 1.1 4.1 1.4 2.7 2.7-1.2 1.2-1.4 3.3-1 10.2.3 4.8.9 10.5 1.5 12.7.5 2.2 1 6.4 1 9.3v5.3l15-.2c8.3 0 15-.5 15-1s1.1-.9 2.5-.9 2.5.4 2.5.9c0 .6 26.4 1 65.9 1.1l65.9.1 2.8-2.6c1.5-1.4 3.4-2.5 4.3-2.4 1.2 0 1.1.3-.4.9-1.1.5-1.5.9-1 1 .6 0-.1.7-1.5 1.5-2.3 1.3-1.6 1.4 8.3 1.5 6.3 0 10.7-.4 10.7-1 0-.5 1.1-1.2 2.5-1.6 1.9-.5 2.4-1.1 2-2.4-.4-1.4-.2-1.7 1.3-1.3 1.4.3 1.7 1.1 1.4 3.4-.3 1.7 0 2.9.7 2.9.6 0 1.1-.5 1.1-1 0-.6.7-1 1.5-1s1.5.4 1.5 1 3 1 7 1c6 0 7-.3 7-1.8.1-1.6.1-1.6 1.1 0 .8 1.5 2.7 1.8 14.4 1.7 7.9 0 13.5-.4 13.5-.9 0-.6.9-1 2-1s2 .4 2 1c0 1.1 10.9 1.2 15.5 0l3-.7-2.8-1.1c-1.6-.7-3.6-1.2-4.5-1.2-2.6-.1 2.8-2.9 5.6-3 1.3 0 3.2.5 4.2 1 1.3.7 2.1.7 2.5 0 .3-.5-.1-1-1-1s-1.3-.5-1-1c.3-.6-.1-1.3-.9-1.6-2.3-.9-2-2.4.5-2.4 1.1 0 2.9-.5 4-1 1.8-1 1.9-2.7 1.9-56 0-44-.3-55-1.3-55-1.6 0-7.2 3.9-11.9 8.2-1.5 1.5-1.8 1.5-1.8.3 0-.8.4-1.5.8-1.5.5 0 1.4-1.2 2.1-2.6 1.2-2.8.9-3.5-3.4-7.9-5.4-5.4-6.9-5.8-18.7-4.6-7.1.7-11.6.7-12.7.1-1.5-.9-1.5-.9.1-1 2.2 0 7.8-3.2 7.8-4.5 0-.6-.4-2.6-1-4.5-.9-3.2 0-8.4 2.1-11.5.3-.6 1-2.7 1.3-4.9.4-2.1 1.1-4.6 1.6-5.5.4-.9 2.1-4.3 3.7-7.6 1.5-3.3 3.1-6.1 3.6-6.3 1.5-.7.6-2.2-1.3-2.2-1.1 0-2 .4-2 1 0 .5-.6 1-1.2 1-.9 0-1.4-1.8-1.5-5-.2-4.7-.1-5 2-4.5 1.6.4 3.2-.2 5.2-1.9 3.4-2.9 4.1-3.1 4.8-1.4.3.8.6.6.6-.5.1-.9.5-1.7 1-1.7s1.3-.9 1.6-2.1c.7-2.1.7-2.1 3.3.3 3.3 2.9 6.7 4.8 8.6 4.8.7 0 1.9.7 2.6 1.5.7.8 1.9 1.5 2.6 1.5 1.1 0 1.4-1.9 1.4-8.5V107h-5c-4.7 0-6.6-1.2-3.7-2.3.9-.4.9-.6-.1-.6-.7-.1-2 .6-2.8 1.4-2.4 2.3-4.5 1.9-4-.8 2-9.7 1.6-16.7-1-16.7-.8 0-1.4-.4-1.4-.8 0-1.4-6.9-4.2-10.3-4.2-1.8.1-4.8.9-6.7 1.8-2.7 1.3-3.5 2.4-3.7 4.7-.1 1.7 0 2.4.3 1.7.8-1.6 8.2-1.5 9.9.2.8.7 1.3 2.6 1.2 4.2-.3 2.7-.6 2.9-4 2.6-3.3-.3-3.9.1-5.5 2.9-.9 1.7-2.7 4.4-3.9 5.9-1.8 2.2-2.3 4.1-2.3 8.4 0 5.1.2 5.6 2.4 6.2 1.4.3 3 .3 3.5-.1 2-1.2 1.2 2.9-1.6 8.5-1.6 3-3 5.7-3.3 6-.6.6-3.1 5-6.2 11.1-1.3 2.4-2.9 5-3.5 5.7-.7.7-1.3 2-1.3 2.8 0 .8-.4 1.4-.8 1.4-.8 0-5.2 7.1-5.2 8.3 0 .3 1.9.7 4.3.9 3.6.3 4.3.7 4.5 2.7.3 2.1.1 2.3-2 1.7-1.2-.4-3.4-1-4.8-1.3-1.4-.3-3.3-1.3-4.3-2.1-1.3-1.2-2-1.3-2.9-.4-1.6 1.6-3.6 1.5-5.4-.3-.9-.8-2.3-1.5-3.2-1.4-1.1 0-1.2.2-.4.6.6.2 1.2 1.7 1.2 3.1v2.7l-2.6-3c-2.6-3-2.6-2.9-1.3 2.5.3.9-.3 1.4-1.3 1.4-1-.1-1.8.4-1.8 1.1 0 .7-1.4 1.5-3 1.9-3 .6-7.4 4.6-8.5 7.8-.9 2.6-9.6 5.3-11.3 3.6-.6-.6-1.9-.7-3.1-.3-1.6.5-2.1 1.5-2.1 3.8v3.2l-1.5-2.9c-.9-1.6-1.3-3.7-1-4.8.4-1.1.1-2-1-2.4-1.1-.4-1.2-1-.6-1.8.7-.8.4-1.6-.9-2.6-1.8-1.3-1.8-1.4-.2-2.6 1.6-1.2 1.6-1.3-.2-2-1.6-.6-1.5-.9 1-2 1.9-.8 2.3-1.3 1.2-1.3-1.3-.1-1.8-.9-1.8-2.9.1-2.5.2-2.6 1.4-.9 1.3 1.7 1.5 1.6 2.4-1 .9-2.4 1.1-2.5 1.1-.6.1 3.2 2.1 3.9 2.1.8 0-2.4.2-2.5 2.3-1.3 1.2.7 2.8 1.1 3.5 1 .6-.2 1.2.3 1.2 1 0 .9.3.9 1-.2 1.4-2.2 1.3-2.4-1.9-5.6-8.6-8.6-11.5-9.7-10.9-4.3.2 1.7-.1 3.1-.7 3-.6 0-1.1-3.7-1.2-8.1l-.3-8 3.8-1.9c3.5-1.9 3.6-2 1-2.1h-2.6l.3-10.9c.2-6 .8-11.7 1.3-12.8.9-1.5.6-2.5-1.2-4.6-2.2-2.6-2.8-2.7-11.4-2.7-7.2 0-9.3.3-10 1.5-.7 1.4-1.1 1.3-2.7-.5-1-1.1-1.5-2.3-1-2.8.4-.4 1-.1 1.2.5.7 2.1 1.7 1.5 3.1-1.7 1-2.1 1-3.4.3-4.9-.6-1.1-1.1-2.7-1.1-3.7 0-.9-1.4-3-3.1-4.5-2.4-2.1-2.9-3.2-2.4-4.9.7-2.3-.7-4-3.2-4-1.8 0-5.4 4.2-4.8 5.7.2.8-.5 1.7-1.9 2.3-2.6.9-4.1 3.6-2.5 4.6.5.3 1.5.1 2.2-.4 1.7-1.3 7.4 1.3 8.2 3.8.3 1.1 1.1 2 1.6 2 1.4 0 1.1 7.4-.3 8.9-1.1 1.1-1 1.3.5.8 3-1.1 2 2.3-1.9 5.9-3.7 3.5-8 4.4-10.2 2.2-.9-.9-1.2-.9-1.2 0 0 .7-.5 1.2-1 1.2-.6 0-.5-.9.2-2.1 1-1.7 1-2.3.1-2.6-.8-.3-1.3-2.4-1.3-5.3 0-3.9-.4-5.2-1.9-6-5.3-2.8-35.7.5-40.2 4.3-1.7 1.5-1.9 2.5-1.4 6 .6 4 1.7 8 3.6 12.2 2.8 6.7 3.9 10 3.9 12.1 0 1.2.5 2.6 1 2.9.6.4 1 5.3 1 11.5 0 13.5-.5 14.1-12.4 13.8-7.6-.1-7.7-.1-10.6 3.3-1.5 1.9-3.1 4.9-3.5 6.7-.7 3.9.4 14.2 1.5 14.2.5 0 1.1 1.4 1.5 3.1.6 2.7.2 3.5-2.9 6.4-2 1.8-3.6 3.7-3.6 4.1 0 .5-1.6 2-3.5 3.4-5.7 4.1-5.1 4.7 3.8 4.2 9.5-.5 9.6-.6 13.4-5.3 2.4-3 3.2-3.5 5.1-2.8 2.5.9 2.6 1.6 1.2 5.4-1.5 3.8.7 5.5 7 5.5 4.6 0 5.5-.4 8.7-3.6 3.4-3.5 3.6-3.6 8.6-2.9 7.3 1 21.7 1.2 21.7.2 0-.5 1.9-.7 4.3-.5 3.9.3 4.4.6 6.2 4.5 2.3 4.8 4.1 5.1 3.8.7-.1-1.9 0-2.2.4-.9.7 2.6 4.1 5.5 6.5 5.5 1 0 3.6.9 5.8 2 2.2 1.1 5.1 2 6.5 2 1.5 0 2.4.4 2 1-.3.5.1 2 .9 3.1.9 1.4 1.3 3.3.9 5-.5 2.6-.3 2.9 2.1 2.9 2.9 0 3.5 1.7.9 2.7-1 .3-3.1 1.8-4.8 3.3-3.5 3.2-10.9 7.4-14.5 8.2-2.5.6-7.7 2.4-11.5 3.9-1.1.5-4 1-6.5 1.2-3.5.2-4 .5-2.5 1.1 1.1.4 3.3 1.4 4.8 2.1l2.9 1.2-2.9.7c-1.5.4-3.5 1.3-4.3 2.1-.8.7-2.5 1.6-3.7 1.9-1.3.4-2.3 1.2-2.3 1.7s-.9.9-1.9.9c-1.1 0-2.3.5-2.6 1-.4.6-1.1.8-1.6.5-.5-.4-.9-.1-.9.4 0 .6-.9 1.1-2 1.1s-2 .5-2 1.1c0 .6-.7.9-1.5.5-.8-.3-1.5-.1-1.5.5 0 1.5-2.8 4.1-3.8 3.5-.5-.3-2.3.4-4.2 1.5-1.8 1.1-4.1 1.8-5 1.6-1.2-.3-2.3.4-3.1 1.9-.7 1.3-2 2.4-2.8 2.4-.9 0-2.5.6-3.6 1.4-2.4 1.7-8.5 1-8.5-1 0-1.9 3.6-5.4 5.5-5.4.8 0 1.5-.4 1.5-.9s2.6-2.1 5.8-3.7c3.1-1.6 5.9-3.1 6.2-3.4.3-.4 2.6-1.6 5.1-2.7 2.5-1.2 5.1-2.8 5.8-3.7.8-.9 2.2-1.6 3.2-1.6 1.1 0 1.9-.5 1.9-1 0-.6.7-1 1.5-1s1.5-.4 1.5-.9 1-1.2 2.3-1.5c1.2-.2-.8-.2-4.5 0-6.1.5-7.1.3-12.5-2.7-3.2-1.7-6.2-3.5-6.8-4-.5-.5-1.9-.9-3.1-.9-2.4 0-14.7-6.5-15.2-8.1-.2-.5-1-.9-1.8-.9s-1.4-.4-1.4-1c0-.5-1.1-1.2-2.5-1.6-1.4-.3-2.5-.9-2.5-1.3 0-1.1-9.9-6.3-11.1-5.9-.6.2-.1 1.4 1 2.7 1.2 1.3 2.1 2.7 2.1 3.1 0 .4 2.5 3.4 5.5 6.6 3 3.3 5.4 6.7 5.5 7.6 0 2.2-1.6 2.4-2.4.3-.3-.8-1.2-1.5-2.1-1.5-1.7 0-5.6-2-6.8-3.5-.4-.6-.7-.1-.5 1 .2 1.1.9 2.7 1.7 3.5 1.3 1.3 1.2 1.5-.7 1.8-2.3.3-6.9-2-11.1-5.8-1.3-1.1-2.7-2-3.2-2-.4 0-1.5-2.1-2.4-4.7-1-2.7-2.1-5.7-2.6-6.8-1-2.3-3.9-13.8-3.9-15.4 0-.6.7-1.1 1.5-1.1s1.5-.4 1.5-.8c0-1-7.1-4.2-9.4-4.2-1 0-2-.9-2.3-2-.5-2-2.3-2.8-2.3-1 0 1.4-1.9 1.2-3.5-.4-1-1-1.5-5.4-1.8-16.7-.2-8.5-.9-17.9-1.6-20.9-2-9.7-3.3-14-4.2-14-.5 0-.9-.6-.9-1.3 0-1.8-5.6-7-10.5-9.8-3.2-1.8-5.6-2.3-12-2.3l-8.1-.1-2.2-4.2c-1.2-2.4-2.2-5.6-2.2-7.3 0-2-.5-3-1.5-3-.8 0-1.5-.8-1.5-1.8-.1-1.8-2.3-5.2-3.5-5.2-.4 0-2-.9-3.5-2-2.5-1.8-2.9-2.8-3.4-8.8-.6-8.1-2-17.6-3.3-21.7-1.9-6-10.8-9.2-16.9-6.2zm9.9 12.6c-3.3.6-4.4 2.2-3.8 5.5.5 2.4.1 3.7-1.6 5.5l-2.3 2.4 2.2 1.7 2.1 1.8-2.5.5c-4.4.8-7.4-4.2-7.4-12.3 0-3.1 2.3-5.5 6.8-7.1 1.8-.6 3.2-1.6 3.2-2.2 0-.6 1.2 0 2.6 1.4 2.3 2.1 2.4 2.4.7 2.8zm1 10.7c-2.3 1.7-4.7 1.8-3.6.1.4-.6.6-1.9.5-2.7-.1-.8.8-2 2-2.5 2-.9 2.3-.7 2.6 1.3.2 1.4-.4 2.9-1.5 3.8zm292.7-.5c0 1.7-2.7 3.9-4.9 3.9-1.6 0-2.1-.6-2.1-2.5 0-2.2.4-2.5 3.5-2.5 1.9 0 3.5.5 3.5 1.1zM290 127c0 .5-.7 1-1.5 1s-1.5-.5-1.5-1c0-.6.7-1 1.5-1s1.5.4 1.5 1zm34 1.9c0 .5-.7 1.1-1.5 1.5-.9.3-1.5 0-1.5-.9 0-.8.7-1.5 1.5-1.5s1.5.4 1.5.9zm-5 1.7c0 .2-1.2.4-2.7.4-2.1 0-2.4-.3-1.4-.9 1.3-.8 4.1-.5 4.1.5zm-35.7 3.2c-.5 1.4-.3 1.5.8.4 1.6-1.5 6.6-1.6 7.1-.1.8 2.5-.5 8.9-1.8 8.9-.8 0-1.4-.8-1.4-1.7 0-1.4-.3-1.4-1.2-.5-1 1-1 1.5.1 2.2 1.2.7 1.2 1.1-.2 2.4-.8.9-2.1 1.6-2.7 1.6-.7 0-.9.7-.6 1.6.4 1.1.1 1.4-1.2 1.2-1.4-.3-1.6-1.2-1.4-4.8l.3-4.5-2.5 3c-1.5 1.7-2.1 3.2-1.5 3.6 1.2.7-.4 2.1-4.8 4-2 .8-3.3 2.1-3.3 3.1s-.4 1.8-1 1.8c-.5 0-.7.7-.4 1.5.4 1 0 1.5-1.5 1.5-1.4 0-2.1-.6-2.1-2 0-1.1.5-2 1-2 .6 0 1-1.6 1-3.5 0-2.4.5-3.5 1.5-3.5.8 0 1.5-.5 1.5-1.1 0-1.3 2.5-3.9 3.9-3.9.6 0 .8-.7.5-1.5-.4-.9 0-1.5 1-1.5.9 0 1.6-.5 1.6-1 0-.6-.4-1-1-1-1.4 0-1.2-1.9.4-3.5 1.2-1.2 1.6-1.2 2.6 0 .7.8 1 2.4.7 3.5-.6 2.4.8 2.6 3 .4 1.4-1.3 1.4-2 .4-3.5-1.2-2.1-.6-4.3.9-3.4.5.3.6 1.3.3 2.3zm37.7 3.7c0 1.4-.4 2.5-1 2.5-1.1 0-1.4-3.3-.3-4.3 1.1-1.1 1.3-.8 1.3 1.8zm-7.3 1.7c-.3.8-.6.5-.6-.6-.1-1.1.2-1.7.5-1.3.3.3.4 1.2.1 1.9zm-11 3c-.3.8-.6.5-.6-.6-.1-1.1.2-1.7.5-1.3.3.3.4 1.2.1 1.9zm16 7c-.3.8-.6.5-.6-.6-.1-1.1.2-1.7.5-1.3.3.3.4 1.2.1 1.9zm-39.2 2.2c1.6 1.6 1 2.6-1.7 2.6-1.1 0-1.8-.7-1.8-2 0-2.3 1.5-2.6 3.5-.6zm9.2 4.7c-1 1.7-.9 2.2.5 3 .9.5 2.3 1.5 3 2.3.8.7 2.4 1.7 3.7 2.1 1.2.3 2 1.2 1.8 1.8-.6 1.8-3.3 2-5 .2-.9-.8-2.9-1.5-4.6-1.5-1.7 0-3.1-.5-3.1-1 0-.6-.7-1-1.5-1-.9 0-1.2-.6-.9-1.5.4-.8 1.5-1.5 2.5-1.5 2.4 0 2.4-.8-.1-3-1.9-1.6-1.8-1.7 1.5-1.8 3.2-.1 3.4 0 2.2 1.9zm12.1 3c-1.8 1.2-2.3-.8-.6-2.8 1.2-1.5 1.3-1.5 1.6.2.2 1-.2 2.1-1 2.6zM295 158c0 .5-.5 1-1.1 1-.5 0-.7-.5-.4-1 .3-.6.8-1 1.1-1 .2 0 .4.4.4 1zm22.3 4.6c-.3.9-.9 1.2-1.2.7-.3-.4-1-1.1-1.5-1.6-.5-.4 0-.7 1.2-.7 1.5 0 2 .4 1.5 1.6zm-10.3.4c0 .5-.4 1-1 1-.5 0-1-.5-1-1 0-.6.5-1 1-1 .6 0 1 .4 1 1zm22.7 6.1c1 1 .8 2.4-1.3 11.9-.8 3.8-5.1 11-6.5 11-.5 0-.9.5-.9 1.1 0 1.2-2.9 3.8-4.2 3.9-1.7 0-.7-9 1.9-17.2 2.4-7.5 3.2-9 5.8-10.3 3.6-1.8 3.8-1.8 5.2-.4zm62.9 8.6c-1 2.6-1.8.8-.9-2.3.5-2.1.8-2.4 1.1-1.1.2 1 .1 2.5-.2 3.4zm-14.3 1.2c2.3.7 5.3 1.6 6.7 1.9 3 .9 4 4.1 1.3 4.1-1.5 0-3.4.3-7.5 1-.5 0-.8 1-.8 2.1s-.4 2-1 2c-.5 0-1-.5-1-1 0-.6-.7-1-1.5-1-.9 0-1.5-.9-1.5-2.5 0-1.4-.4-2.5-1-2.5-.5 0-1-.7-1-1.5s.5-1.5 1-1.5c.6 0 1.1-1.2 1.1-2.8.1-1.5.3-2 .6-1.1.2.9 2.3 2.2 4.6 2.8zm-76.6 15.7c-.3.3-1.2.4-1.9.1-.8-.3-.5-.6.6-.6 1.1-.1 1.7.2 1.3.5zm12.7 15.8c-.6 1.5-.7 1.5-1.9-.1-1-1.3-1-2-.2-2.5 1.6-1 2.9.5 2.1 2.6zm38.5 12.6c1.6 0 4.1 2.5 4.1 4.1 0 1.2-2.6 1-14.8-.9-6.6-1.1-9.3-3.2-4-3.2 2 0 4-.5 4.4-1.1.3-.6 1.7-.9 3-.6 1.4.2 2.7 0 3.1-.6.4-.6 1.1-.4 1.8.6s1.8 1.7 2.4 1.7zm90.4 7.7c-.7.2-1.9.2-2.5 0-.7-.3-.2-.5 1.2-.5s1.9.2 1.3.5zM176 236c0 .5-.4 1-1 1-.5 0-1-.5-1-1 0-.6.5-1 1-1 .6 0 1 .4 1 1zm63 38.9c-.1 1.2-.7.9-2.5-1.2-1.4-1.6-2.2-3.3-1.9-3.9.9-1.4 4.4 2.7 4.4 5.1zm1 13.7c0 .3-.7 1.3-1.6 2.1-1.3 1.4-1.7 1.4-2.5.2-.6-1-.3-1.6.9-2.1 2.2-.9 3.2-.9 3.2-.2zm158.7 4.8c-.2.6-.9 1.2-1.5 1.2-.7.1-1.8.2-2.6.3-.8 0-1.8 1-2.1 2.1-.7 2.1-2.5 2.8-2.5 1 0-1.7 6.3-6.8 7.8-6.3.7.3 1.1 1.1.9 1.7zm37.6 3.1c-1 1.3-2.2 2.5-2.8 2.5-.5 0-2.7 1.5-4.7 3.3-4.3 3.7-11.5 6.4-13.1 4.8-.8-.8-.7-1.1.4-1.1.7 0 2.7-1.1 4.3-2.5 1.6-1.4 3.7-2.5 4.7-2.5.9 0 3.3-1.6 5.2-3.5 1.9-1.9 4.5-3.5 5.6-3.5 2.1 0 2.2.1.4 2.5zM216 301.4c0 .9-3 1.4-3.5.6-.4-.6.3-1 1.4-1 1.2 0 2.1.2 2.1.4zm169 1.3c0 .5-1.1 1.3-2.5 2-2.8 1.2-3.1.9-1.2-1.2 1.3-1.5 3.7-2 3.7-.8zm13.4 1.2c-.5.3-1.1.9-1.4 1.3-.3.3-1.4 0-2.5-.9-2-1.5-2-1.5.3-.8 1.3.4 2.2.2 2.2-.5 0-.6.5-.8 1.1-.4.6.3.7.9.3 1.3zM224 305c0 .8-2.5 2-4.1 2-.5 0-.9-.6-.9-1.4 0-.8 1-1.4 2.5-1.4 1.4 0 2.5.4 2.5.8zm137 2c0 .5-.4 1-1 1-.5 0-1-.5-1-1 0-.6.5-1 1-1 .6 0 1 .4 1 1zm16.8.4c-1 .7-1.5 1.6-1.1 1.9 1 1.1-1 .8-2.7-.3-1.3-.8-1.2-1 .3-1 .9 0 1.7-.5 1.7-1 0-.6.8-1 1.8-1 1.6.1 1.6.1 0 1.4zm22.5 1.3c-.7.2-2.1.2-3 0-1-.3-.4-.5 1.2-.5 1.7 0 2.4.2 1.8.5z"/><path d="M112 97.4c0 1.7.5 2.6 1.6 2.6 1 0 1.4-.7 1.2-2.2-.5-3.2-2.8-3.5-2.8-.4zm262.6 82.4c-.7 1.2 1.9 3.5 3.4 3 .7-.2.3-1.1-.8-2.1s-2.3-1.4-2.6-.9zM17.2 86.1c-7.9.4-15 1-15.8 1.3C.3 87.8 0 92 0 110.1c0 20 .2 22.3 1.7 23.5 2.6 1.9 3.3 1.7 3-.9-.1-1.2-1.1-2.7-2.2-3.4-2-1.2-1.9-1.2.3-1.3 1.8 0 2.2-.6 2.2-3.3 0-1.7-.9-4.3-2-5.7-1.1-1.4-2-2.9-2-3.3 0-2 4.7-4.6 8.4-4.7 2.2 0 7.8-.5 12.4-1.2 6.5-1 8.7-1 10.3 0 1.8 1.2 1.9.9 1.9-10.7 0-8.3-.4-12.1-1.2-12.8-.8-.5-7.4-.6-15.6-.2zm378 7.7c-1.1 1-2.4 3.1-2.8 4.7-.4 1.6-1.8 4-3.1 5.3-1.2 1.2-2.3 2.5-2.3 2.7 0 .3 2.1.5 4.6.5 3.7 0 4.5-.3 4-1.5-.3-.8-.3-1.5 0-1.5s1.2.7 2 1.5c1.9 1.9 4.4 1.9 4.4.1 0-.8 1-2.2 2.2-3.1 2-1.3 2.1-1.8 1-3.5-.7-1.1-1-3.1-.6-4.5.6-2.3.4-2.5-3.3-2.5-2.4 0-4.8.7-6.1 1.8zm-317.6 6.8c-.3.9-.6 4.2-.6 7.4 0 6.7.2 6.8 9.7 7.7l6.3.6v-6.9c-.1-9.2-1.1-10.4-8.8-10.4-4.5 0-6.1.4-6.6 1.6zm222.4 4.8c0 1.7 2.4 2.7 4.5 2 1.2-.5 1.3-1 .4-2-1.5-1.8-4.9-1.8-4.9 0zm-245 1.9c0 .9.5 1.7 1.1 1.7.8 0 .8.5-.1 1.5-1.8 2.2-3 1.9-3-.8v-2.2l-1.8 2.2c-1.3 1.6-3 2.3-6.7 2.5-3.6.2-5 .7-5.1 1.8-.3 4.9-.3 4.9-4.1 4.7-3.4-.2-3.8.1-4.1 2.3-.3 2.5-.2 2.5 7.3 2.5 4.4-.1 8-.6 8.7-1.3.7-.7 4.3-1.2 9.1-1.2 5.5 0 8.3-.4 9.3-1.4 1.6-1.7 1.9-5.6.4-5.6-.5 0-1.1-1.5-1.1-3.3-.1-2.1-.3-2.5-.6-1.2-.7 2.8-2.3 4.3-2.3 2.1 0-.9-.7-2.4-1.5-3.3-1.4-1.4-1.5-1.3-.9 1.1.4 1.6.2 2.6-.5 2.6-.6 0-1.1-.6-1.1-1.3 0-.6-.7-2.1-1.5-3.1-1.3-1.7-1.5-1.8-1.5-.3zm-5 8.2c0 .8-.9 1.5-2 1.5-1.7 0-1.9-.2-.8-1.5 1.7-1.9 2.8-1.9 2.8 0zm248.7-.4c-.5 2 0 2.9 2 2.9.7 0 1.3-.6 1.3-1.4 0-.8.6-1.6 1.3-1.9.6-.2 0-.6-1.5-.9-2-.4-2.8 0-3.1 1.3z"/><path d="M13.4 123.2c-1 1.5.1 1.9 2.6 1l2.4-.9-2.2-.5c-1.2-.4-2.5-.2-2.8.4zm3.6 2.6c-3 .4-7 2.3-7 3.3 0 .4 1 1.1 2.2 1.5 3.6 1.1 4.8 3 4.8 7.7 0 4.1-.2 4.5-2.1 4-1.6-.4-2-.2-1.7.8.8 2.1-1.1 5.1-2.8 4.5-1.7-.6-5.4 2.7-5.4 4.8 0 2.5 1.2 4.6 2.6 4.6.8 0 1.4.5 1.4 1.1 0 .6.7.4 1.5-.4.8-.9 3.2-1.8 5.3-2.2 3-.5 4-1.2 4.9-3.5.6-1.6.7-3 .2-3.2-.5-.2-1-1.7-1.1-3.3-.1-1.7-.6-3.6-1.1-4.3-.6-.8-.6-1.2.2-1.2.6 0 1.1-1.1 1.1-2.4 0-1.4.4-2.7.9-3 .7-.5-.4-8.8-1.2-9.1-.1 0-1.3.1-2.7.3zm358.8 20.9c-1.6.2-2.8 1.1-2.8 1.9 0 .8-.4 1.4-.9 1.4s-.9 1.4-.8 3.2c.2 2.9.6 3.3 5 4.4 4.6 1.2 4.7 1.1 6.7-1.6 2.2-3.1 2.7-9 .8-9-.7 0-2.2-.2-3.3-.4-1.1-.2-3.2-.1-4.7.1zM61 148c-.8.5-3.1 1-5.1 1-2 0-4.2.7-4.9 1.5-1.1 1.3-.6 1.5 3.7 1.5 2.7 0 5.4.5 6 1.1.5.5 3 .9 5.4.7 4.2-.3 4.4-.5 4.7-3.6.3-3.2.3-3.2-4-3.2-2.4 0-5 .5-5.8 1zm350 2.3c0 .9-.4 1.7-1 1.7-.5 0-1 .9-1 2s.4 2 .9 2c1.1 0 2.6-5.9 1.7-6.7-.3-.4-.6.1-.6 1zm-377 4.8c0 2.2 3 3.9 8.4 4.5 6.1.7 6.1.9 3.5 8.2-.5 1.3-.9 3.7-.9 5.3 0 1.6-.4 2.9-1 2.9-.5 0-1 .9-1 2s-.4 2-1 2c-.5 0-1-1.6-1-3.5 0-2.4-.5-3.5-1.5-3.5-1.9 0-2 4.4-.1 6 .8.6 1.6 2.6 1.8 4.3.2 2.4.8 3.3 2.6 3.5 1.5.2 2.2-.2 2.2-1.2 0-.9-.6-1.6-1.4-1.6-1.5 0-1.1-4.6.5-5.6.5-.3.9-1.6.9-3 0-1.3.5-2.4 1-2.4.6 0 1 1.8 1 4 0 2.9.4 4 1.5 4 .8 0 1.5.4 1.5 1 0 .5-.7 1-1.5 1-2 0-1.9 1.7.1 3.7 1 1.1 1.4 2.8 1.2 5-.3 2 0 3.2.6 3 1.5-.5 2-6.6.6-8.2-.9-1.1-.1-1.4 4.3-1.7 4.9-.3 5.3-.1 4.9 1.6-.3 1.3-.1 1.7.6 1.2.8-.5 1.2.2 1.2 2.2 0 3.4.7 4.3 2.6 3.5 1-.4 1.1-1 .4-2.3-1.3-2.4-1.3-7.1 0-9 .6-1 1-1.1 1-.3 0 .7 1.1 1.3 2.5 1.3s2.5-.5 2.5-1.1c0-.7 1.9-1 5.1-.7l5.1.3-.6-4.9c-.3-2.7-1.1-5.4-1.8-5.9-.9-.5-.4-.7 1.3-.3 2.1.5 2.8.2 3.2-1.5.6-2.4-.1-4.9-1.4-4.9-.5 0-.9.6-.9 1.2 0 1-.2 1-.9 0-.4-.7-1.4-1.2-2.2-1-1.8.4-2.5-4.2-.7-5.3 1-.7 1-1.1 0-2.1-.9-.9-5.8-1.3-17.7-1.5-9.1-.1-16.9-.4-17.5-.8-.5-.3-1.3.1-1.6.9-.8 2-2.8 2-4.4.1-1.5-1.7-3-2-3-.4zm9 2.9c0 .5-.4 1-1 1-.5 0-1-.5-1-1 0-.6.5-1 1-1 .6 0 1 .4 1 1zm13.9 10.6c.2.2-.8.4-2.2.4-1.5 0-2.7.4-2.7 1 0 .5-.9 1-2 1-2.2 0-2.8-2.5-.7-3.3 1.2-.5 6.8.2 7.6.9zM79 179c0 1.2-2.7 1.2-5.5 0-1.6-.7-1.3-.9 1.8-.9 2-.1 3.7.3 3.7.9zm-19.7 3.7c-.7.2-2.1.2-3 0-1-.3-.4-.5 1.2-.5 1.7 0 2.4.2 1.8.5zM25 157.2c-1.4.6-4.3 1.4-6.4 1.7-4 .6-6.3 3.1-2.9 3.1 1.1 0 2.4.5 3 1.1.8.8 1.3.8 1.7 0 .4-.6 1.6-1.1 2.8-1.1 3 0 8.8-3 8.8-4.6 0-1.6-3.4-1.7-7-.2zm419.1 10.4c0 1.1.3 1.4.6.6.3-.7.2-1.6-.1-1.9-.3-.4-.6.2-.5 1.3zM87 170c-1.3.8-1.2 1 .3 1 .9 0 1.7-.5 1.7-1 0-1.2-.1-1.2-2 0zm352.5 4.1c-1.1 1.6-.1 1.9 1.3.3.7-.8.8-1.4.3-1.4s-1.3.5-1.6 1.1zm-3.3 3.4c-1.1 1.2-1 1.5.3 1.5.8 0 1.5-.7 1.5-1.5 0-1.8-.2-1.8-1.8 0zM89.1 193.7c.7 1 1.5 2 1.6 2.2.2.2.3-.5.3-1.7 0-1.4-.6-2.2-1.6-2.2-1.4 0-1.5.3-.3 1.7zm-62.2 7.7c-4.2 4-6.9 7.6-6.9 9.1 0 .9-.6 1.8-1.4 2.1-1.1.4-1.1 1.1-.1 4.2 1.2 3.3 1.1 3.8-.6 5-1.1.7-1.7 1.8-1.3 2.3.3.6-.3 1.3-1.5 1.6-1.2.3-2.1.8-2.1 1.2 0 .4-3 1.8-6.8 3.2-6.1 2.2-6.4 2.4-3.4 2.7 1.7.2 3.2.7 3.2 1.3 0 .5 1.6.9 3.5.9s3.5.4 3.5 1c0 .5 1 1 2.3 1 2.7 0 15.6 2.9 17.9 4.1 2.4 1.2 7.8 1.1 7.8-.1 0-.6-1.2-6.8-2.6-13.7-2-9.9-2.4-13.1-1.5-15 1.7-3.6 1.4-7.3-.6-8-1-.4-2.2-1.2-2.6-2-1.8-2.9-4.3-3.3-6.8-.9zm38.6 7.3c-1.1.3-2.9 1.2-4 2-1.8 1.3-1.2 1.3 5.5.7 8.5-.8 10.6-1.5 7-2.5-2.9-.8-5.7-.9-8.5-.2zm14.3 0c.7.3 1.6.2 1.9-.1.4-.3-.2-.6-1.3-.5-1.1 0-1.4.3-.6.6zm-10 4.6c-3.3 1.3-3.7 2.7-.8 2.7 1.1 0 2-.5 2-1 0-.6.9-1 2-1s2-.5 2-1c0-1.2-1.6-1.1-5.2.3zm62 50.4c.7.3 1.6.2 1.9-.1.4-.3-.2-.6-1.3-.5-1.1 0-1.4.3-.6.6zm10 2c1.2.2 3 .2 4 0 .9-.3-.1-.5-2.3-.4-2.2 0-3 .2-1.7.4z"/></svg>