<?xml version="1.0" standalone="no"?>
<!DOCTYPE svg PUBLIC "-//W3C//DTD SVG 20010904//EN"
 "http://www.w3.org/TR/2001/REC-SVG-20010904/DTD/svg10.dtd">
<svg version="1.0" xmlns="http://www.w3.org/2000/svg"
 width="445.000000pt" height="311.000000pt" viewBox="0 0 445.000000 311.000000"
 preserveAspectRatio="xMidYMid meet">

<g transform="translate(0.000000,311.000000) scale(0.100000,-0.100000)"
fill="#000000" stroke="none">
<path d="M4348 3063 c12 -2 30 -2 40 0 9 3 -1 5 -23 4 -22 0 -30 -2 -17 -4z"/>
<path d="M4160 3050 c0 -5 20 -10 45 -10 25 0 45 5 45 10 0 6 -20 10 -45 10
-25 0 -45 -4 -45 -10z"/>
<path d="M3783 3033 c15 -2 39 -2 55 0 15 2 2 4 -28 4 -30 0 -43 -2 -27 -4z"/>
<path d="M3571 3023 l-53 -4 6 -202 c8 -260 16 -357 28 -357 6 0 8 12 5 30 -4
17 -2 30 3 30 6 0 10 7 10 15 0 8 6 33 12 55 10 31 18 40 35 40 19 0 23 6 23
30 0 29 -1 30 -49 30 -49 0 -74 13 -46 23 11 5 12 13 4 39 -12 45 -12 211 1
203 6 -3 10 -18 11 -33 0 -26 1 -26 9 -4 5 12 14 22 20 22 5 0 10 7 10 15 0 8
6 15 14 15 14 0 26 21 26 46 0 8 -3 13 -7 12 -5 -1 -32 -3 -62 -5z"/>
<path d="M3688 2923 c1 -38 7 -89 12 -114 5 -25 6 -55 3 -67 -4 -18 -1 -22 16
-22 20 0 21 3 19 138 -2 123 -3 127 -5 37 -5 -139 -23 -149 -23 -12 0 81 -3
107 -13 107 -10 0 -12 -17 -9 -67z"/>
<path d="M3781 2860 c0 -71 1 -130 2 -131 20 -6 96 -9 114 -4 22 5 23 8 23
125 l0 120 -34 0 c-19 0 -38 5 -41 10 -3 6 -19 10 -35 10 l-30 0 1 -130z"/>
<path d="M3562 2870 c0 -14 2 -19 5 -12 2 6 2 18 0 25 -3 6 -5 1 -5 -13z"/>
<path d="M4040 2860 c0 -19 3 -21 12 -12 9 9 9 15 0 24 -9 9 -12 7 -12 -12z"/>
<path d="M4310 2861 c0 -5 -8 -11 -17 -15 -10 -3 -26 -11 -35 -18 -13 -9 -25
-10 -46 -2 -37 14 -52 -2 -52 -56 l0 -40 54 0 c34 0 56 5 59 13 4 10 7 10 18
0 7 -8 38 -13 71 -13 32 0 58 -4 58 -10 0 -5 7 -10 15 -10 11 0 15 13 15 54 0
51 -3 57 -33 80 -33 25 -107 37 -107 17z"/>
<path d="M3570 2775 c0 -37 4 -65 10 -65 6 0 10 28 10 65 0 37 -4 65 -10 65
-6 0 -10 -28 -10 -65z"/>
<path d="M3610 2755 c0 -50 6 -57 20 -22 l9 22 0 -23 c1 -40 21 -13 21 29 0
35 -3 39 -25 39 -23 0 -25 -4 -25 -45z"/>
<path d="M4307 2514 c-13 -14 -7 -24 16 -24 33 0 49 -14 47 -41 -4 -49 0 -69
15 -69 9 0 18 7 21 15 5 11 11 12 25 4 16 -8 19 -6 19 17 0 22 -3 24 -14 15
-12 -10 -14 -4 -13 36 l2 48 -55 3 c-31 2 -59 0 -63 -4z"/>
<path d="M3966 2450 l-14 -30 54 0 c50 0 54 2 54 24 0 46 -71 51 -94 6z"/>
<path d="M3539 2398 c0 -7 -3 -22 -7 -33 -3 -11 -8 -213 -12 -450 -4 -236 -8
-470 -9 -520 -4 -123 -4 -124 16 -95 10 14 37 44 61 68 23 24 45 56 49 73 3
16 9 29 14 29 5 0 9 20 9 45 0 25 -4 45 -10 45 -6 0 -10 82 -10 226 0 253 0
252 -70 254 l-35 2 28 10 c23 8 27 14 22 32 -4 11 -11 48 -15 81 -5 33 -12 77
-16 98 -7 37 -6 39 17 35 19 -2 23 -8 21 -28 -4 -22 -2 -23 13 -10 16 14 17
12 10 -28 -5 -32 -3 -45 9 -58 18 -17 22 -64 5 -64 -6 0 -9 -12 -7 -27 3 -26
6 -27 66 -31 81 -5 112 3 112 28 0 10 -4 22 -10 25 -5 3 -10 17 -10 31 0 13
-4 24 -10 24 -5 0 -10 20 -10 44 0 73 -12 93 -62 99 -123 16 -135 24 -140 81
-2 26 -17 37 -19 14z"/>
<path d="M4188 2393 c7 -3 16 -2 19 1 4 3 -2 6 -13 5 -11 0 -14 -3 -6 -6z"/>
<path d="M4185 2330 c16 -18 20 -19 28 -5 4 8 12 13 18 10 5 -4 9 -1 9 4 0 6
-16 11 -37 11 -36 0 -36 0 -18 -20z"/>
<path d="M1124 2287 c-43 -21 -94 -164 -94 -261 0 -60 -18 -106 -41 -106 -10
0 -19 -4 -19 -9 0 -15 -39 -19 -51 -5 -12 15 -39 19 -39 7 0 -5 7 -17 15 -27
20 -27 19 -36 -5 -36 -11 0 -20 -4 -20 -10 0 -5 10 -10 21 -10 21 0 21 -3 15
-57 -4 -32 -11 -59 -16 -61 -6 -2 -10 -15 -10 -28 0 -21 5 -24 35 -24 19 0 35
-4 35 -10 0 -5 7 -10 15 -10 20 0 36 -42 32 -83 -2 -27 2 -32 23 -35 14 -2 36
-7 50 -12 14 -6 59 -14 100 -19 41 -5 90 -12 108 -15 22 -3 42 0 58 11 26 17
33 3 9 -17 -8 -7 -12 -16 -9 -21 8 -14 -69 -1 -78 13 -6 9 -10 10 -15 2 -17
-24 -271 -36 -298 -14 -13 11 -15 8 -15 -22 0 -19 -4 -38 -10 -44 -16 -16 -24
-128 -11 -153 9 -16 16 -20 25 -12 14 12 116 -7 116 -21 0 -5 8 -8 17 -8 31 0
103 -32 103 -46 0 -11 -13 -12 -60 -7 -37 3 -60 2 -60 -4 0 -5 -16 -18 -35
-29 -19 -10 -35 -22 -35 -26 0 -5 -4 -8 -9 -8 -6 0 -7 16 -4 35 6 38 6 39 -71
35 -25 -1 -48 -10 -65 -26 -14 -13 -29 -24 -33 -24 -5 0 -8 -4 -8 -10 0 -5 9
-10 20 -10 11 0 20 -4 20 -10 0 -5 15 -10 34 -10 19 0 38 5 41 10 3 6 16 10
28 10 22 -1 22 -1 2 -12 -11 -6 -32 -24 -47 -39 l-27 -28 32 -23 c18 -12 34
-25 37 -28 17 -18 161 -82 174 -77 11 4 16 19 16 47 0 22 3 40 8 40 4 0 15 15
25 33 18 32 66 67 93 67 16 0 -20 -42 -47 -54 -8 -3 -2 -4 14 -1 20 4 27 1 27
-10 0 -8 -4 -15 -10 -15 -5 0 -10 -6 -10 -14 0 -37 -40 -104 -69 -117 -17 -8
-31 -17 -31 -21 0 -12 28 -10 35 2 6 10 129 9 423 -6 134 -6 142 -8 142 -27 0
-11 -8 -29 -17 -40 -12 -13 -18 -36 -18 -69 0 -47 -2 -52 -35 -69 -19 -11 -29
-19 -21 -19 10 0 12 -8 8 -29 -3 -15 -1 -33 5 -39 8 -8 5 -17 -13 -31 -13 -11
-31 -21 -39 -21 -30 0 -90 -21 -90 -30 0 -6 11 -10 24 -10 12 0 36 -4 52 -9
16 -5 48 -14 72 -20 38 -11 41 -14 27 -27 -12 -12 -14 -33 -10 -102 3 -48 9
-105 15 -127 5 -22 10 -64 10 -93 l0 -53 150 2 c83 0 150 5 150 10 0 5 11 9
25 9 14 0 25 -4 25 -9 0 -6 264 -10 659 -11 l659 -1 28 26 c15 14 34 25 43 24
12 0 11 -3 -4 -9 -11 -5 -15 -9 -10 -10 6 0 -1 -7 -15 -15 -23 -13 -16 -14 83
-15 63 0 107 4 107 10 0 5 11 12 25 16 19 5 24 11 20 24 -4 14 -2 17 13 13 14
-3 17 -11 14 -34 -3 -17 0 -29 7 -29 6 0 11 5 11 10 0 6 7 10 15 10 8 0 15 -4
15 -10 0 -6 30 -10 70 -10 60 0 70 3 70 18 1 16 1 16 11 0 8 -15 27 -18 144
-17 79 0 135 4 135 9 0 6 9 10 20 10 11 0 20 -4 20 -10 0 -11 109 -12 155 0
l30 7 -28 11 c-16 7 -36 12 -45 12 -26 1 28 29 56 30 13 0 32 -5 42 -10 13 -7
21 -7 25 0 3 5 -1 10 -10 10 -9 0 -13 5 -10 10 3 6 -1 13 -9 16 -23 9 -20 24
5 24 11 0 29 5 40 10 18 10 19 27 19 560 0 440 -3 550 -13 550 -16 0 -72 -39
-119 -82 -15 -15 -18 -15 -18 -3 0 8 4 15 8 15 5 0 14 12 21 26 12 28 9 35
-34 79 -54 54 -69 58 -187 46 -71 -7 -116 -7 -127 -1 -15 9 -15 9 1 10 22 0
78 32 78 45 0 6 -4 26 -10 45 -9 32 0 84 21 115 3 6 10 27 13 49 4 21 11 46
16 55 4 9 21 43 37 76 15 33 31 61 36 63 15 7 6 22 -13 22 -11 0 -20 -4 -20
-10 0 -5 -6 -10 -12 -10 -9 0 -14 18 -15 50 -2 47 -1 50 20 45 16 -4 32 2 52
19 34 29 41 31 48 14 3 -8 6 -6 6 5 1 9 5 17 10 17 5 0 13 9 16 21 7 21 7 21
33 -3 33 -29 67 -48 86 -48 7 0 19 -7 26 -15 7 -8 19 -15 26 -15 11 0 14 19
14 85 l0 85 -50 0 c-47 0 -66 12 -37 23 9 4 9 6 -1 6 -7 1 -20 -6 -28 -14 -24
-23 -45 -19 -40 8 20 97 16 167 -10 167 -8 0 -14 4 -14 8 0 14 -69 42 -103 42
-18 -1 -48 -9 -67 -18 -27 -13 -35 -24 -37 -47 -1 -17 0 -24 3 -17 8 16 82 15
99 -2 8 -7 13 -26 12 -42 -3 -27 -6 -29 -40 -26 -33 3 -39 -1 -55 -29 -9 -17
-27 -44 -39 -59 -18 -22 -23 -41 -23 -84 0 -51 2 -56 24 -62 14 -3 30 -3 35 1
20 12 12 -29 -16 -85 -16 -30 -30 -57 -33 -60 -6 -6 -31 -50 -62 -111 -13 -24
-29 -50 -35 -57 -7 -7 -13 -20 -13 -28 0 -8 -4 -14 -8 -14 -8 0 -52 -71 -52
-83 0 -3 19 -7 43 -9 36 -3 43 -7 45 -27 3 -21 1 -23 -20 -17 -12 4 -34 10
-48 13 -14 3 -33 13 -43 21 -13 12 -20 13 -29 4 -16 -16 -36 -15 -54 3 -9 8
-23 15 -32 14 -11 0 -12 -2 -4 -6 6 -2 12 -17 12 -31 l0 -27 -26 30 c-26 30
-26 29 -13 -25 3 -9 -3 -14 -13 -14 -10 1 -18 -4 -18 -11 0 -7 -14 -15 -30
-19 -30 -6 -74 -46 -85 -78 -9 -26 -96 -53 -113 -36 -6 6 -19 7 -31 3 -16 -5
-21 -15 -21 -38 l0 -32 -15 29 c-9 16 -13 37 -10 48 4 11 1 20 -10 24 -11 4
-12 10 -6 18 7 8 4 16 -9 26 -18 13 -18 14 -2 26 16 12 16 13 -2 20 -16 6 -15
9 10 20 19 8 23 13 12 13 -13 1 -18 9 -18 29 1 25 2 26 14 9 13 -17 15 -16 24
10 9 24 11 25 11 6 1 -32 21 -39 21 -8 0 24 2 25 23 13 12 -7 28 -11 35 -10 6
2 12 -3 12 -10 0 -9 3 -9 10 2 14 22 13 24 -19 56 -86 86 -115 97 -109 43 2
-17 -1 -31 -7 -30 -6 0 -11 37 -12 81 l-3 80 38 19 c35 19 36 20 10 21 l-26 0
3 109 c2 60 8 117 13 128 9 15 6 25 -12 46 -22 26 -28 27 -114 27 -72 0 -93
-3 -100 -15 -7 -14 -11 -13 -27 5 -10 11 -15 23 -10 28 4 4 10 1 12 -5 7 -21
17 -15 31 17 10 21 10 34 3 49 -6 11 -11 27 -11 37 0 9 -14 30 -31 45 -24 21
-29 32 -24 49 7 23 -7 40 -32 40 -18 0 -54 -42 -48 -57 2 -8 -5 -17 -19 -23
-26 -9 -41 -36 -25 -46 5 -3 15 -1 22 4 17 13 74 -13 82 -38 3 -11 11 -20 16
-20 14 0 11 -74 -3 -89 -11 -11 -10 -13 5 -8 30 11 20 -23 -19 -59 -37 -35
-80 -44 -102 -22 -9 9 -12 9 -12 0 0 -7 -5 -12 -10 -12 -6 0 -5 9 2 21 10 17
10 23 1 26 -8 3 -13 24 -13 53 0 39 -4 52 -19 60 -53 28 -357 -5 -402 -43 -17
-15 -19 -25 -14 -60 6 -40 17 -80 36 -122 28 -67 39 -100 39 -121 0 -12 5 -26
10 -29 6 -4 10 -53 10 -115 0 -135 -5 -141 -124 -138 -76 1 -77 1 -106 -33
-15 -19 -31 -49 -35 -67 -7 -39 4 -142 15 -142 5 0 11 -14 15 -31 6 -27 2 -35
-29 -64 -20 -18 -36 -37 -36 -41 0 -5 -16 -20 -35 -34 -57 -41 -51 -47 38 -42
95 5 96 6 134 53 24 30 32 35 51 28 25 -9 26 -16 12 -54 -15 -38 7 -55 70 -55
46 0 55 4 87 36 34 35 36 36 86 29 73 -10 217 -12 217 -2 0 5 19 7 43 5 39 -3
44 -6 62 -45 23 -48 41 -51 38 -7 -1 19 0 22 4 9 7 -26 41 -55 65 -55 10 0 36
-9 58 -20 22 -11 51 -20 65 -20 15 0 24 -4 20 -10 -3 -5 1 -20 9 -31 9 -14 13
-33 9 -50 -5 -26 -3 -29 21 -29 29 0 35 -17 9 -27 -10 -3 -31 -18 -48 -33 -35
-32 -109 -74 -145 -82 -25 -6 -77 -24 -115 -39 -11 -5 -40 -10 -65 -12 -35 -2
-40 -5 -25 -11 11 -4 33 -14 48 -21 l29 -12 -29 -7 c-15 -4 -35 -13 -43 -21
-8 -7 -25 -16 -37 -19 -13 -4 -23 -12 -23 -17 0 -5 -9 -9 -19 -9 -11 0 -23 -5
-26 -10 -4 -6 -11 -8 -16 -5 -5 4 -9 1 -9 -4 0 -6 -9 -11 -20 -11 -11 0 -20
-5 -20 -11 0 -6 -7 -9 -15 -5 -8 3 -15 1 -15 -5 0 -15 -28 -41 -38 -35 -5 3
-23 -4 -42 -15 -18 -11 -41 -18 -50 -16 -12 3 -23 -4 -31 -19 -7 -13 -20 -24
-28 -24 -9 0 -25 -6 -36 -14 -24 -17 -85 -10 -85 10 0 19 36 54 55 54 8 0 15
4 15 9 0 5 26 21 58 37 31 16 59 31 62 34 3 4 26 16 51 27 25 12 51 28 58 37
8 9 22 16 32 16 11 0 19 5 19 10 0 6 7 10 15 10 8 0 15 4 15 9 0 5 10 12 23
15 12 2 -8 2 -45 0 -61 -5 -71 -3 -125 27 -32 17 -62 35 -68 40 -5 5 -19 9
-31 9 -24 0 -147 65 -152 81 -2 5 -10 9 -18 9 -8 0 -14 4 -14 10 0 5 -11 12
-25 16 -14 3 -25 9 -25 13 0 11 -99 63 -111 59 -6 -2 -1 -14 10 -27 12 -13 21
-27 21 -31 0 -4 25 -34 55 -66 30 -33 54 -67 55 -76 0 -22 -16 -24 -24 -3 -3
8 -12 15 -21 15 -17 0 -56 20 -68 35 -4 6 -7 1 -5 -10 2 -11 9 -27 17 -35 13
-13 12 -15 -7 -18 -23 -3 -69 20 -111 58 -13 11 -27 20 -32 20 -4 0 -15 21
-24 47 -10 27 -21 57 -26 68 -10 23 -39 138 -39 154 0 6 7 11 15 11 8 0 15 4
15 8 0 10 -71 42 -94 42 -10 0 -20 9 -23 20 -5 20 -23 28 -23 10 0 -14 -19
-12 -35 4 -10 10 -15 54 -18 167 -2 85 -9 179 -16 209 -20 97 -33 140 -42 140
-5 0 -9 6 -9 13 0 18 -56 70 -105 98 -32 18 -56 23 -120 23 l-81 1 -22 42
c-12 24 -22 56 -22 73 0 20 -5 30 -15 30 -8 0 -15 8 -15 18 -1 18 -23 52 -35
52 -4 0 -20 9 -35 20 -25 18 -29 28 -34 88 -6 81 -20 176 -33 217 -19 60 -108
92 -169 62z m99 -126 c-33 -6 -44 -22 -38 -55 5 -24 1 -37 -16 -55 l-23 -24
22 -17 21 -18 -25 -5 c-44 -8 -74 42 -74 123 0 31 23 55 68 71 18 6 32 16 32
22 0 6 12 0 26 -14 23 -21 24 -24 7 -28z m10 -107 c-23 -17 -47 -18 -36 -1 4
6 6 19 5 27 -1 8 8 20 20 25 20 9 23 7 26 -13 2 -14 -4 -29 -15 -38z m2927 5
c0 -17 -27 -39 -49 -39 -16 0 -21 6 -21 25 0 22 4 25 35 25 19 0 35 -5 35 -11z
m-1260 -219 c0 -5 -7 -10 -15 -10 -8 0 -15 5 -15 10 0 6 7 10 15 10 8 0 15 -4
15 -10z m340 -19 c0 -5 -7 -11 -15 -15 -9 -3 -15 0 -15 9 0 8 7 15 15 15 8 0
15 -4 15 -9z m-50 -17 c0 -2 -12 -4 -27 -4 -21 0 -24 3 -14 9 13 8 41 5 41 -5z
m-357 -32 c-5 -14 -3 -15 8 -4 16 15 66 16 71 1 8 -25 -5 -89 -18 -89 -8 0
-14 8 -14 17 0 14 -3 14 -12 5 -10 -10 -10 -15 1 -22 12 -7 12 -11 -2 -24 -8
-9 -21 -16 -27 -16 -7 0 -9 -7 -6 -16 4 -11 1 -14 -12 -12 -14 3 -16 12 -14
48 l3 45 -25 -30 c-15 -17 -21 -32 -15 -36 12 -7 -4 -21 -48 -40 -20 -8 -33
-21 -33 -31 0 -10 -4 -18 -10 -18 -5 0 -7 -7 -4 -15 4 -10 0 -15 -15 -15 -14
0 -21 6 -21 20 0 11 5 20 10 20 6 0 10 16 10 35 0 24 5 35 15 35 8 0 15 5 15
11 0 13 25 39 39 39 6 0 8 7 5 15 -4 9 0 15 10 15 9 0 16 5 16 10 0 6 -4 10
-10 10 -14 0 -12 19 4 35 12 12 16 12 26 0 7 -8 10 -24 7 -35 -6 -24 8 -26 30
-4 14 13 14 20 4 35 -12 21 -6 43 9 34 5 -3 6 -13 3 -23z m377 -37 c0 -14 -4
-25 -10 -25 -11 0 -14 33 -3 43 11 11 13 8 13 -18z m-73 -17 c-3 -8 -6 -5 -6
6 -1 11 2 17 5 13 3 -3 4 -12 1 -19z m-110 -30 c-3 -8 -6 -5 -6 6 -1 11 2 17
5 13 3 -3 4 -12 1 -19z m160 -70 c-3 -8 -6 -5 -6 6 -1 11 2 17 5 13 3 -3 4
-12 1 -19z m-392 -22 c16 -16 10 -26 -17 -26 -11 0 -18 7 -18 20 0 23 15 26
35 6z m92 -47 c-10 -17 -9 -22 5 -30 9 -5 23 -15 30 -23 8 -7 24 -17 37 -21
12 -3 20 -12 18 -18 -6 -18 -33 -20 -50 -2 -9 8 -29 15 -46 15 -17 0 -31 5
-31 10 0 6 -7 10 -15 10 -9 0 -12 6 -9 15 4 8 15 15 25 15 24 0 24 8 -1 30
-19 16 -18 17 15 18 32 1 34 0 22 -19z m121 -30 c-18 -12 -23 8 -6 28 12 15
13 15 16 -2 2 -10 -2 -21 -10 -26z m-58 11 c0 -5 -5 -10 -11 -10 -5 0 -7 5 -4
10 3 6 8 10 11 10 2 0 4 -4 4 -10z m223 -46 c-3 -9 -9 -12 -12 -7 -3 4 -10 11
-15 16 -5 4 0 7 12 7 15 0 20 -4 15 -16z m-103 -4 c0 -5 -4 -10 -10 -10 -5 0
-10 5 -10 10 0 6 5 10 10 10 6 0 10 -4 10 -10z m227 -61 c10 -10 8 -24 -13
-119 -8 -38 -51 -110 -65 -110 -5 0 -9 -5 -9 -11 0 -12 -29 -38 -42 -39 -17 0
-7 90 19 172 24 75 32 90 58 103 36 18 38 18 52 4z m629 -86 c-10 -26 -18 -8
-9 23 5 21 8 24 11 11 2 -10 1 -25 -2 -34z m-143 -12 c23 -7 53 -16 67 -19 30
-9 40 -41 13 -41 -15 0 -34 -3 -75 -10 -5 0 -8 -10 -8 -21 0 -11 -4 -20 -10
-20 -5 0 -10 5 -10 10 0 6 -7 10 -15 10 -9 0 -15 9 -15 25 0 14 -4 25 -10 25
-5 0 -10 7 -10 15 0 8 5 15 10 15 6 0 11 12 11 28 1 15 3 20 6 11 2 -9 23 -22
46 -28z m-766 -157 c-3 -3 -12 -4 -19 -1 -8 3 -5 6 6 6 11 1 17 -2 13 -5z
m127 -158 c-6 -15 -7 -15 -19 1 -10 13 -10 20 -2 25 16 10 29 -5 21 -26z m385
-126 c16 0 41 -25 41 -41 0 -12 -26 -10 -148 9 -66 11 -93 32 -40 32 20 0 40
5 44 11 3 6 17 9 30 6 14 -2 27 0 31 6 4 6 11 4 18 -6 7 -10 18 -17 24 -17z
m904 -77 c-7 -2 -19 -2 -25 0 -7 3 -2 5 12 5 14 0 19 -2 13 -5z m-2673 -53 c0
-5 -4 -10 -10 -10 -5 0 -10 5 -10 10 0 6 5 10 10 10 6 0 10 -4 10 -10z m630
-389 c-1 -12 -7 -9 -25 12 -14 16 -22 33 -19 39 9 14 44 -27 44 -51z m10 -137
c0 -3 -7 -13 -16 -21 -13 -14 -17 -14 -25 -2 -6 10 -3 16 9 21 22 9 32 9 32 2z
m1587 -48 c-2 -6 -9 -12 -15 -12 -7 -1 -18 -2 -26 -3 -8 0 -18 -10 -21 -21 -7
-21 -25 -28 -25 -10 0 17 63 68 78 63 7 -3 11 -11 9 -17z m376 -31 c-10 -13
-22 -25 -28 -25 -5 0 -27 -15 -47 -33 -43 -37 -115 -64 -131 -48 -8 8 -7 11 4
11 7 0 27 11 43 25 16 14 37 25 47 25 9 0 33 16 52 35 19 19 45 35 56 35 21 0
22 -1 4 -25z m-2203 -49 c0 -9 -30 -14 -35 -6 -4 6 3 10 14 10 12 0 21 -2 21
-4z m1690 -13 c0 -5 -11 -13 -25 -20 -28 -12 -31 -9 -12 12 13 15 37 20 37 8z
m134 -12 c-5 -3 -11 -9 -14 -13 -3 -3 -14 0 -25 9 -20 15 -20 15 3 8 13 -4 22
-2 22 5 0 6 5 8 11 4 6 -3 7 -9 3 -13z m-1744 -11 c0 -8 -25 -20 -41 -20 -5 0
-9 6 -9 14 0 8 10 14 25 14 14 0 25 -4 25 -8z m1370 -20 c0 -5 -4 -10 -10 -10
-5 0 -10 5 -10 10 0 6 5 10 10 10 6 0 10 -4 10 -10z m168 -4 c-10 -7 -15 -16
-11 -19 10 -11 -10 -8 -27 3 -13 8 -12 10 3 10 9 0 17 5 17 10 0 6 8 10 18 10
16 -1 16 -1 0 -14z m225 -13 c-7 -2 -21 -2 -30 0 -10 3 -4 5 12 5 17 0 24 -2
18 -5z"/>
<path d="M1120 2136 c0 -17 5 -26 16 -26 10 0 14 7 12 22 -5 32 -28 35 -28 4z"/>
<path d="M3746 1312 c-7 -12 19 -35 34 -30 7 2 3 11 -8 21 -11 10 -23 14 -26
9z"/>
<path d="M172 2249 c-79 -4 -150 -10 -158 -13 -11 -4 -14 -46 -14 -227 0 -200
2 -223 17 -235 26 -19 33 -17 30 9 -1 12 -11 27 -22 34 -20 12 -19 12 3 13 18
0 22 6 22 33 0 17 -9 43 -20 57 -11 14 -20 29 -20 33 0 20 47 46 84 47 22 0
78 5 124 12 65 10 87 10 103 0 18 -12 19 -9 19 107 0 83 -4 121 -12 128 -8 5
-74 6 -156 2z"/>
<path d="M3952 2172 c-11 -10 -24 -31 -28 -47 -4 -16 -18 -40 -31 -53 -12 -12
-23 -25 -23 -27 0 -3 21 -5 46 -5 37 0 45 3 40 15 -3 8 -3 15 0 15 3 0 12 -7
20 -15 19 -19 44 -19 44 -1 0 8 10 22 22 31 20 13 21 18 10 35 -7 11 -10 31
-6 45 6 23 4 25 -33 25 -24 0 -48 -7 -61 -18z"/>
<path d="M776 2104 c-3 -9 -6 -42 -6 -74 0 -67 2 -68 97 -77 l63 -6 0 69 c-1
92 -11 104 -88 104 -45 0 -61 -4 -66 -16z"/>
<path d="M3000 2056 c0 -17 24 -27 45 -20 12 5 13 10 4 20 -15 18 -49 18 -49
0z"/>
<path d="M550 2037 c0 -9 5 -17 11 -17 8 0 8 -5 -1 -15 -18 -22 -30 -19 -30 8
l0 22 -18 -22 c-13 -16 -30 -23 -67 -25 -36 -2 -50 -7 -51 -18 -3 -49 -3 -49
-41 -47 -34 2 -38 -1 -41 -23 -3 -25 -2 -25 73 -25 44 1 80 6 87 13 7 7 43 12
91 12 55 0 83 4 93 14 16 17 19 56 4 56 -5 0 -11 15 -11 33 -1 21 -3 25 -6 12
-7 -28 -23 -43 -23 -21 0 9 -7 24 -15 33 -14 14 -15 13 -9 -11 4 -16 2 -26 -5
-26 -6 0 -11 6 -11 13 0 6 -7 21 -15 31 -13 17 -15 18 -15 3z m-50 -82 c0 -8
-9 -15 -20 -15 -17 0 -19 2 -8 15 17 19 28 19 28 0z"/>
<path d="M2987 1959 c-5 -20 0 -29 20 -29 7 0 13 6 13 14 0 8 6 16 13 19 6 2
0 6 -15 9 -20 4 -28 0 -31 -13z"/>
<path d="M134 1878 c-10 -15 1 -19 26 -10 l24 9 -22 5 c-12 4 -25 2 -28 -4z"/>
<path d="M170 1852 c-30 -4 -70 -23 -70 -33 0 -4 10 -11 22 -15 36 -11 48 -30
48 -77 0 -41 -2 -45 -21 -40 -16 4 -20 2 -17 -8 8 -21 -11 -51 -28 -45 -17 6
-54 -27 -54 -48 0 -25 12 -46 26 -46 8 0 14 -5 14 -11 0 -6 7 -4 15 4 8 9 32
18 53 22 30 5 40 12 49 35 6 16 7 30 2 32 -5 2 -10 17 -11 33 -1 17 -6 36 -11
43 -6 8 -6 12 2 12 6 0 11 11 11 24 0 14 4 27 9 30 7 5 -4 88 -12 91 -1 0 -13
-1 -27 -3z"/>
<path d="M3758 1643 c-16 -2 -28 -11 -28 -19 0 -8 -4 -14 -9 -14 -5 0 -9 -14
-8 -32 2 -29 6 -33 50 -44 46 -12 47 -11 67 16 22 31 27 90 8 90 -7 0 -22 2
-33 4 -11 2 -32 1 -47 -1z"/>
<path d="M610 1630 c-8 -5 -31 -10 -51 -10 -20 0 -42 -7 -49 -15 -11 -13 -6
-15 37 -15 27 0 54 -5 60 -11 5 -5 30 -9 54 -7 42 3 44 5 47 36 3 32 3 32 -40
32 -24 0 -50 -5 -58 -10z"/>
<path d="M4110 1607 c0 -9 -4 -17 -10 -17 -5 0 -10 -9 -10 -20 0 -11 4 -20 9
-20 11 0 26 59 17 67 -3 4 -6 -1 -6 -10z"/>
<path d="M340 1559 c0 -22 30 -39 84 -45 61 -7 61 -9 35 -82 -5 -13 -9 -37 -9
-53 0 -16 -4 -29 -10 -29 -5 0 -10 -9 -10 -20 0 -11 -4 -20 -10 -20 -5 0 -10
16 -10 35 0 24 -5 35 -15 35 -19 0 -20 -44 -1 -60 8 -6 16 -26 18 -43 2 -24 8
-33 26 -35 15 -2 22 2 22 12 0 9 -6 16 -14 16 -15 0 -11 46 5 56 5 3 9 16 9
30 0 13 5 24 10 24 6 0 10 -18 10 -40 0 -29 4 -40 15 -40 8 0 15 -4 15 -10 0
-5 -7 -10 -15 -10 -20 0 -19 -17 1 -37 10 -11 14 -28 12 -50 -3 -20 0 -32 6
-30 15 5 20 66 6 82 -9 11 -1 14 43 17 49 3 53 1 49 -16 -3 -13 -1 -17 6 -12
8 5 12 -2 12 -22 0 -34 7 -43 26 -35 10 4 11 10 4 23 -13 24 -13 71 0 90 6 10
10 11 10 3 0 -7 11 -13 25 -13 14 0 25 5 25 11 0 7 19 10 51 7 l51 -3 -6 49
c-3 27 -11 54 -18 59 -9 5 -4 7 13 3 21 -5 28 -2 32 15 6 24 -1 49 -14 49 -5
0 -9 -6 -9 -12 0 -10 -2 -10 -9 0 -4 7 -14 12 -22 10 -18 -4 -25 42 -7 53 10
7 10 11 0 21 -9 9 -58 13 -177 15 -91 1 -169 4 -175 8 -5 3 -13 -1 -16 -9 -8
-20 -28 -20 -44 -1 -15 17 -30 20 -30 4z m90 -29 c0 -5 -4 -10 -10 -10 -5 0
-10 5 -10 10 0 6 5 10 10 10 6 0 10 -4 10 -10z m139 -106 c2 -2 -8 -4 -22 -4
-15 0 -27 -4 -27 -10 0 -5 -9 -10 -20 -10 -22 0 -28 25 -7 33 12 5 68 -2 76
-9z m221 -104 c0 -12 -27 -12 -55 0 -16 7 -13 9 18 9 20 1 37 -3 37 -9z m-197
-37 c-7 -2 -21 -2 -30 0 -10 3 -4 5 12 5 17 0 24 -2 18 -5z"/>
<path d="M250 1538 c-14 -6 -43 -14 -64 -17 -40 -6 -63 -31 -29 -31 11 0 24
-5 30 -11 8 -8 13 -8 17 0 4 6 16 11 28 11 30 0 88 30 88 46 0 16 -34 17 -70
2z"/>
<path d="M4441 1434 c0 -11 3 -14 6 -6 3 7 2 16 -1 19 -3 4 -6 -2 -5 -13z"/>
<path d="M870 1410 c-13 -8 -12 -10 3 -10 9 0 17 5 17 10 0 12 -1 12 -20 0z"/>
<path d="M4395 1369 c-11 -16 -1 -19 13 -3 7 8 8 14 3 14 -5 0 -13 -5 -16 -11z"/>
<path d="M4362 1335 c-11 -12 -10 -15 3 -15 8 0 15 7 15 15 0 18 -2 18 -18 0z"/>
<path d="M891 1173 c7 -10 15 -20 16 -22 2 -2 3 5 3 17 0 14 -6 22 -16 22 -14
0 -15 -3 -3 -17z"/>
<path d="M269 1096 c-42 -40 -69 -76 -69 -91 0 -9 -6 -18 -14 -21 -11 -4 -11
-11 -1 -42 12 -33 11 -38 -6 -50 -11 -7 -17 -18 -13 -23 3 -6 -3 -13 -15 -16
-12 -3 -21 -8 -21 -12 0 -4 -30 -18 -68 -32 -61 -22 -64 -24 -34 -27 17 -2 32
-7 32 -13 0 -5 16 -9 35 -9 19 0 35 -4 35 -10 0 -5 10 -10 23 -10 27 0 156
-29 179 -41 24 -12 78 -11 78 1 0 6 -12 68 -26 137 -20 99 -24 131 -15 150 17
36 14 73 -6 80 -10 4 -22 12 -26 20 -18 29 -43 33 -68 9z"/>
<path d="M655 1023 c-11 -3 -29 -12 -40 -20 -18 -13 -12 -13 55 -7 85 8 106
15 70 25 -29 8 -57 9 -85 2z"/>
<path d="M798 1023 c7 -3 16 -2 19 1 4 3 -2 6 -13 5 -11 0 -14 -3 -6 -6z"/>
<path d="M698 977 c-33 -13 -37 -27 -8 -27 11 0 20 5 20 10 0 6 9 10 20 10 11
0 20 5 20 10 0 12 -16 11 -52 -3z"/>
<path d="M1318 473 c7 -3 16 -2 19 1 4 3 -2 6 -13 5 -11 0 -14 -3 -6 -6z"/>
<path d="M1418 453 c12 -2 30 -2 40 0 9 3 -1 5 -23 4 -22 0 -30 -2 -17 -4z"/>
</g>
</svg>
